<svg xmlns="http://www.w3.org/2000/svg">
<symbol id='search' viewBox="0 0 20 20">
<path class="cls-1" d="M1694.84,51.98l-4.86-4.86a8.506,8.506,0,1,0-.84.842l4.86,4.86a0.61,0.61,0,0,0,.42.177,0.574,0.574,0,0,0,.42-0.177A0.6,0.6,0,0,0,1694.84,51.98Zm-18.62-10.452a7.33,7.33,0,1,1,7.33,7.335A7.338,7.338,0,0,1,1676.22,41.528Z" transform="translate(-1675.03 -33)" fill='#f9fafb'/>
</symbol>


<symbol id='arrow' viewBox="0 0 29.938 15.97"> 
<path class="cls-1" d="M973.7,1005.3a1.067,1.067,0,0,0-1.5,0l-13.183,13.17L945.8,1005.3a1.06,1.06,0,0,0-1.5,1.5l13.932,13.89a1.024,1.024,0,0,0,.75.31,1.067,1.067,0,0,0,.75-0.31l13.932-13.89A1.039,1.039,0,0,0,973.7,1005.3Z" transform="translate(-944.031 -1005.03)"/>
</symbol>


<symbol id='arrow--btn' viewBox="0 0 25.03 13.06"> 
  <path class="cls-1" d="M1112.83,5219.08h0l-5.68-5.91a0.56,0.56,0,0,0-.8-0.06,0.6,0.6,0,0,0-.06.83,0.2,0.2,0,0,0,.06.07l4.71,4.9h-22.49a0.574,0.574,0,0,0-.57.59,0.581,0.581,0,0,0,.57.59h22.49l-4.71,4.89a0.6,0.6,0,0,0-.06.83,0.552,0.552,0,0,0,.8.07,0.435,0.435,0,0,0,.06-0.07l5.68-5.9A0.6,0.6,0,0,0,1112.83,5219.08Z" transform="translate(-1088 -5212.97)" fill='#6e774a'/>
</symbol>

</svg>